<?xml version="1.0" encoding="UTF-8"?>
<svg id="Layer_2" data-name="Layer 2" xmlns="http://www.w3.org/2000/svg" viewBox="0 0 24 24">
  <defs>
    <style>
      .cls-1 {
        fill: #0e1713;
      }

      .cls-2 {
        fill: #7dbf41;
      }
    </style>
  </defs>
  <g id="color">
    <g id="network">
      <path id="network-2" data-name="network" class="cls-1" d="M20.76,6.47c1.78,0,3.24-1.45,3.24-3.24s-1.45-3.24-3.24-3.24-3.24,1.45-3.24,3.24c0,.6.17,1.15.46,1.63l-3.01,2.84c-.67-.48-1.48-.78-2.36-.78-.83,0-1.61.25-2.25.68l-2.1-2.1c.16-.32.25-.67.25-1.05,0-1.34-1.09-2.42-2.42-2.42s-2.42,1.09-2.42,2.42,1.09,2.42,2.42,2.42c.38,0,.73-.1,1.05-.25l2.1,2.1c-.43.64-.68,1.42-.68,2.25s.24,1.54.64,2.17l-4.3,4.05c-.49-.3-1.05-.48-1.67-.48-1.78,0-3.23,1.45-3.23,3.23s1.45,3.23,3.23,3.23,3.23-1.45,3.23-3.23c0-.6-.17-1.15-.46-1.63l4.28-4.03c.45.32.97.55,1.53.66v2.69c-1.4.36-2.44,1.61-2.44,3.12,0,1.78,1.45,3.23,3.23,3.23s3.23-1.45,3.23-3.23c0-1.51-1.04-2.77-2.44-3.12v-2.69c.53-.11,1.02-.31,1.46-.61l2.1,2.1c-.16.32-.25.67-.25,1.05,0,1.34,1.09,2.42,2.42,2.42s2.42-1.09,2.42-2.42-1.09-2.42-2.42-2.42c-.38,0-.73.1-1.05.25l-2.1-2.1c.43-.64.68-1.42.68-2.25,0-.78-.23-1.5-.61-2.12l3.05-2.87c.49.3,1.06.48,1.67.48Z"/>
      <path class="cls-2" d="M20.76,1.58c.91,0,1.66.74,1.66,1.66s-.74,1.66-1.66,1.66-1.66-.74-1.66-1.66.74-1.66,1.66-1.66Z"/>
      <path class="cls-2" d="M6.09,5.3c-.46,0-.84-.38-.84-.84s.38-.84.84-.84.84.38.84.84-.38.84-.84.84Z"/>
      <circle class="cls-2" cx="3.23" cy="19.95" r="1.65"/>
      <circle class="cls-2" cx="19.13" cy="17.51" r=".84"/>
      <circle class="cls-2" cx="12.61" cy="20.77" r="1.65"/>
      <circle class="cls-2" cx="12.61" cy="10.98" r="2.47"/>
    </g>
  </g>
</svg>